<?xml version="1.0" ?><svg height="512" id="svg2" version="1.1" width="512" xmlns="http://www.w3.org/2000/svg" xmlns:cc="http://creativecommons.org/ns#" xmlns:dc="http://purl.org/dc/elements/1.1/" xmlns:inkscape="http://www.inkscape.org/namespaces/inkscape" xmlns:rdf="http://www.w3.org/1999/02/22-rdf-syntax-ns#" xmlns:sodipodi="http://sodipodi.sourceforge.net/DTD/sodipodi-0.dtd" xmlns:svg="http://www.w3.org/2000/svg"><defs id="defs4"/><g id="layer1" transform="translate(0,-540.36218)"><path d="m 335.06901,669.31464 c 0,-5.0617 -2.1426,-9.6362 -5.5606,-12.8204 -0.2573,-0.2398 -0.5395,-0.4708 -0.811,-0.695 l -61.4373,-61.4375 c -0.2002,-0.222 -0.4041,-0.4426 -0.6179,-0.6564 l -0.076,0 c -0.4194,-0.4181 -0.787,-0.9081 -1.2358,-1.2744 -0.9245,-0.7585 -1.9099,-1.391 -2.9347,-1.9308 -0.5071,-0.2673 -1.0189,-0.5196 -1.5446,-0.7335 l -0.039,0 c -0.5109,-0.206 -0.9816,-0.3849 -1.5059,-0.5407 l -0.1162,0 c -0.524,-0.1541 -1.0109,-0.244 -1.5446,-0.3476 -1.1158,-0.2204 -2.2267,-0.3475 -3.3595,-0.3475 -3.8894,0.02 -7.8507,1.2921 -11.0441,3.9001 -0.4581,0.3739 -0.8852,0.8468 -1.3129,1.2744 l -62.0552,62.0939 c -0.2155,0.1787 -0.4497,0.3525 -0.6565,0.5406 l -0.1544,0.1544 c -3.4178,3.1841 -5.5607,7.7588 -5.5607,12.8204 0,9.6755 7.8561,17.4542 17.5315,17.4542 l 27.7645,0 c 0,0.1977 -0.039,0.3797 -0.039,0.5792 l 0,96.73193 0,5.0973 0,96.7319 c 0,0.1996 0.033,0.4199 0.039,0.6179 l -27.7645,0 c -9.6754,0 -17.5315,7.7787 -17.5315,17.4542 0,5.0617 2.1427,9.5977 5.5607,12.7818 0.2571,0.2399 0.5392,0.4708 0.8109,0.6951 l 61.3987,61.4759 c 0.2002,0.2221 0.4427,0.4426 0.6565,0.6564 l 0.076,0 c 0.4194,0.4183 0.7868,0.8695 1.2356,1.2358 0.9246,0.7585 1.9101,1.4296 2.9349,1.9694 0.5069,0.2675 1.0188,0.4811 1.5446,0.6951 l 0.039,0 c 0.5109,0.206 0.9818,0.3849 1.5061,0.5406 l 0.1162,0 c 0.5238,0.1542 1.0109,0.2827 1.5446,0.3862 1.1157,0.2204 2.2267,0.3474 3.3596,0.3474 3.8893,-0.02 7.8507,-1.3307 11.044,-3.9387 0.4582,-0.3739 0.8851,-0.808 1.313,-1.2358 l 62.0551,-62.1323 c 0.2154,-0.1787 0.4498,-0.3525 0.6565,-0.5406 l 0.1545,-0.1545 c 3.4178,-3.184 5.5607,-7.7202 5.5607,-12.7818 0,-9.6755 -7.8562,-17.4542 -17.5316,-17.4542 l -27.7645,0 c 0,-0.1978 0.039,-0.4184 0.039,-0.6179 l 0,-96.7319 0,-5.0973 0,-96.73193 c 0,-0.1996 -0.033,-0.3812 -0.039,-0.5792 l 27.7645,0 c 9.6754,0 17.5316,-7.7787 17.5316,-17.4542 z" id="path4164" style="fill:#000000;fill-opacity:1;stroke:none"/></g></svg>