<?xml version="1.0" ?><svg height="512" id="svg2" version="1.1" width="512" xmlns="http://www.w3.org/2000/svg" xmlns:cc="http://creativecommons.org/ns#" xmlns:dc="http://purl.org/dc/elements/1.1/" xmlns:inkscape="http://www.inkscape.org/namespaces/inkscape" xmlns:rdf="http://www.w3.org/1999/02/22-rdf-syntax-ns#" xmlns:sodipodi="http://sodipodi.sourceforge.net/DTD/sodipodi-0.dtd" xmlns:svg="http://www.w3.org/2000/svg"><defs id="defs4"/><g id="layer1" transform="translate(0,-540.36218)"><path d="m 229.33932,580.07253 c -101.3071,-2e-4 -183.423603,82.1166 -183.423803,183.4239 2e-4,101.3068 82.116703,183.42411 183.423803,183.42371 33.7527,0 65.3579,-9.1197 92.5229,-25.0227 l 0.039,0.039 c 54.288,-31.97391 90.708,-91.02881 90.708,-158.59421 -2e-4,-30.0149 -7.1755,-58.3434 -19.9256,-83.3709 -0.062,-0.1187 -0.1318,-0.2286 -0.1932,-0.3475 -0.6084,-1.1884 -1.2198,-2.3794 -1.8535,-3.5526 -0.072,-0.1308 -0.1601,-0.2553 -0.2317,-0.3862 -0.6367,-1.1716 -1.2697,-2.3581 -1.9308,-3.5141 -0.075,-0.1314 -0.1561,-0.2562 -0.2317,-0.3861 -2.8816,-4.983 -5.984,-9.8082 -9.3063,-14.4808 -33.2426,-46.7469 -87.8626,-77.2311 -149.5967,-77.2311 z m 0,60.5492 c 67.8713,0 122.8748,55.0036 122.8748,122.8747 -10e-5,73.1393 -55.6853,122.6201 -122.8748,122.8746 -67.8704,0.2575 -122.9135,-55.0035 -122.9132,-122.8746 0,-67.8713 55.0424,-122.8749 122.9132,-122.8747 z m -6.6419,62.5956 c -4.9235,0 -8.9591,3.9578 -8.9588,8.8817 l 0,34.6768 c -5.7641,0 -12.0082,-0.013 -16.7205,0 -10.6361,0.027 -17.8207,0.1251 -18.072,0.2704 -4.9237,-2e-4 -8.8817,3.8802 -8.8815,8.8043 l 0,25.3703 c 0,4.9235 3.9576,8.9592 8.8815,8.9588 l 34.7925,0 0,34.8699 c 0,4.9237 3.9193,8.8429 8.843,8.8429 l 25.4091,0 c 4.9235,0 8.8818,-3.9191 8.8815,-8.8429 0,0 0.077,-15.6223 0.1546,-34.8699 l 34.8697,0 c 4.9238,0 8.8431,-3.9193 8.843,-8.8428 l 0,-25.4091 c 0,-4.9235 -3.9191,-8.882 -8.843,-8.8815 0,0 -15.5676,-0.078 -34.754,-0.1546 0,-5.7642 0.013,-12.0082 0,-16.7206 -0.027,-10.636 -0.1251,-17.8208 -0.2703,-18.072 0,-4.9238 -3.8805,-8.8817 -8.8043,-8.8817 l -25.3705,0 z m 168.4412,183.2309 c -15.0274,19.79841 -33.5978,36.77401 -54.757,49.96861 l 75.1846,75.18426 c 5.9724,5.9722 15.5364,5.9725 21.5087,0 l 30.7767,-30.77636 c 5.9721,-5.9722 6.0516,-15.6139 0.076,-21.5862 l -72.7903,-72.79031 z" id="path4388" style="fill:#000000;fill-opacity:1;stroke:none"/></g></svg>