<?xml version="1.0" ?><svg height="512" id="svg2" version="1.1" width="512" xmlns="http://www.w3.org/2000/svg" xmlns:cc="http://creativecommons.org/ns#" xmlns:dc="http://purl.org/dc/elements/1.1/" xmlns:inkscape="http://www.inkscape.org/namespaces/inkscape" xmlns:rdf="http://www.w3.org/1999/02/22-rdf-syntax-ns#" xmlns:sodipodi="http://sodipodi.sourceforge.net/DTD/sodipodi-0.dtd" xmlns:svg="http://www.w3.org/2000/svg"><defs id="defs4"/><g id="layer1" transform="translate(0,-540.36218)"><path d="m 235.06363,585.79645 c -101.3073,-1e-4 -183.423896,82.1166 -183.424196,183.4237 2e-4,101.30696 82.116896,183.42396 183.424096,183.42376 33.7526,0 65.3579,-9.1198 92.5229,-25.0228 l 0.039,0.039 c 54.2881,-31.9737 90.708,-91.0288 90.708,-158.59416 -1e-4,-30.015 -7.1755,-58.3433 -19.9257,-83.3709 -0.062,-0.1187 -0.1323,-0.2284 -0.1935,-0.3472 -0.6084,-1.1884 -1.2199,-2.3793 -1.8536,-3.5527 -0.072,-0.1307 -0.1602,-0.2546 -0.2318,-0.3856 -0.6367,-1.1716 -1.2699,-2.3579 -1.931,-3.514 -0.075,-0.1313 -0.1563,-0.2558 -0.232,-0.3857 -2.8815,-4.983 -5.9839,-9.8084 -9.3063,-14.4809 -33.2425,-46.7469 -87.8626,-77.231 -149.5966,-77.231 z m -3e-4,60.549 c 67.8712,0 122.8749,55.0036 122.8749,122.8747 -10e-5,73.13946 -55.6853,122.61996 -122.8746,122.87446 -67.8706,0.2575 -122.9135,-55.0035 -122.9133,-122.87456 0,-67.8712 55.0424,-122.8749 122.9133,-122.8748 z m -32.321,106.1542 c -10.6361,0.027 -17.8207,0.1251 -18.0721,0.2703 -4.9237,-10e-5 -8.8816,3.8806 -8.8814,8.8045 l 2e-4,25.3707 c 0,4.9235 3.9578,8.9589 8.8817,8.9585 l 112.9504,0 c 4.9238,0 8.843,-3.9192 8.8429,-8.8429 l 1e-4,-25.4092 c 0,-4.9234 -3.9192,-8.8816 -8.843,-8.8813 0,0 -62.9701,-0.352 -94.8784,-0.2705 z m 194.1204,139.67216 c -15.0274,19.7983 -33.5978,36.7742 -54.7569,49.9687 l 75.1652,75.16559 c 5.9725,5.9719 15.5365,5.9719 21.5089,-3e-4 l 30.7766,-30.77669 c 5.9721,-5.9721 6.0509,-15.6137 0.076,-21.586 z" id="path4222-1" style="fill:#000000;fill-opacity:1;stroke:none"/></g></svg>