<svg width="512" height="512" xmlns="http://www.w3.org/2000/svg">

 <g>
  <title>background</title>
  <rect fill="none" id="canvas_background" height="402" width="582" y="-1" x="-1"/>
 </g>
 <g>
  <title>Layer 1</title>
  <path transform="rotate(90 254.28570556640625,246.28572082519534) " fill="#000000" id="path4164" d="m335.06901,128.952457c0,-5.0617 -2.1426,-9.6362 -5.5606,-12.8204c-0.2573,-0.2398 -0.5395,-0.4708 -0.811,-0.695l-61.4373,-61.4375c-0.2002,-0.222 -0.4041,-0.4426 -0.6179,-0.6564l-0.076,0c-0.4194,-0.4181 -0.787,-0.9081 -1.2358,-1.2744c-0.9245,-0.7585 -1.9099,-1.391 -2.9347,-1.9308c-0.5071,-0.2673 -1.0189,-0.5196 -1.5446,-0.7335l-0.039,0c-0.5109,-0.206 -0.9816,-0.3849 -1.5059,-0.5407l-0.1162,0c-0.524,-0.1541 -1.0109,-0.244 -1.5446,-0.3476c-1.1158,-0.2204 -2.2267,-0.3475 -3.3595,-0.3475c-3.8894,0.02 -7.8507,1.2921 -11.0441,3.9001c-0.4581,0.3739 -0.8852,0.8468 -1.3129,1.2744l-62.0552,62.0939c-0.2155,0.1787 -0.4497,0.3525 -0.6565,0.5406l-0.1544,0.1544c-3.4178,3.1841 -5.5607,7.7588 -5.5607,12.8204c0,9.6755 7.8561,17.4542 17.5315,17.4542l27.7645,0c0,0.1977 -0.039,0.3797 -0.039,0.5792l0,96.73193l0,5.0973l0,96.7319c0,0.1996 0.033,0.4199 0.039,0.6179l-27.7645,0c-9.6754,0 -17.5315,7.7787 -17.5315,17.4542c0,5.0617 2.1427,9.5977 5.5607,12.7818c0.2571,0.2399 0.5392,0.4708 0.8109,0.6951l61.3987,61.4759c0.2002,0.2221 0.4427,0.4426 0.6565,0.6564l0.076,0c0.4194,0.4183 0.7868,0.8695 1.2356,1.2358c0.9246,0.7585 1.9101,1.4296 2.9349,1.9694c0.5069,0.2675 1.0188,0.4811 1.5446,0.6951l0.039,0c0.5109,0.206 0.9818,0.3849 1.5061,0.5406l0.1162,0c0.5238,0.1542 1.0109,0.2827 1.5446,0.3862c1.1157,0.2204 2.2267,0.3474 3.3596,0.3474c3.8893,-0.02 7.8507,-1.3307 11.044,-3.9387c0.4582,-0.3739 0.8851,-0.808 1.313,-1.2358l62.0551,-62.1323c0.2154,-0.1787 0.4498,-0.3525 0.6565,-0.5406l0.1545,-0.1545c3.4178,-3.184 5.5607,-7.7202 5.5607,-12.7818c0,-9.6755 -7.8562,-17.4542 -17.5316,-17.4542l-27.7645,0c0,-0.1978 0.039,-0.4184 0.039,-0.6179l0,-96.7319l0,-5.0973l0,-96.73193c0,-0.1996 -0.033,-0.3812 -0.039,-0.5792l27.7645,0c9.6754,0 17.5316,-7.7787 17.5316,-17.4542l-0.0003,0z"/>
 </g>
</svg>