<?xml version="1.0" ?><svg transform="scale(-1, 1)" height="512" id="svg2" version="1.1" width="512" xmlns="http://www.w3.org/2000/svg" xmlns:cc="http://creativecommons.org/ns#" xmlns:dc="http://purl.org/dc/elements/1.1/" xmlns:inkscape="http://www.inkscape.org/namespaces/inkscape" xmlns:rdf="http://www.w3.org/1999/02/22-rdf-syntax-ns#" xmlns:sodipodi="http://sodipodi.sourceforge.net/DTD/sodipodi-0.dtd" xmlns:svg="http://www.w3.org/2000/svg"><defs id="defs4"/><g id="layer1" transform="translate(0,-540.36218)"><path d="m 428.68041,654.80959 c -0.7893,-2.7066 -2.2439,-5.24 -4.377,-7.3831 -3.5702,-3.5873 -8.307,-5.3129 -12.9759,-5.1583 -0.3523,0 -0.7155,0.013 -1.0672,0.046 l -86.8815,-0.1861 c -0.2962,-0.013 -0.5876,-0.041 -0.8905,-0.042 l -0.064,0.055 c -0.5924,1e-4 -1.1941,-0.1021 -1.771,-0.045 -1.1897,0.1138 -2.3476,0.3451 -3.4541,0.6864 -0.5472,0.1722 -1.1162,0.3758 -1.6388,0.5978 -0.5082,0.2129 -0.9671,0.4497 -1.4494,0.7082 l -0.102,0.066 c -0.4796,0.259 -0.8817,0.5356 -1.3347,0.8373 -0.9464,0.6297 -1.8212,1.3426 -2.6242,2.1424 -2.741,2.7583 -4.6263,6.4464 -5.0495,10.5472 -0.062,0.5884 -0.034,1.2025 -0.034,1.8094 l -0.2183,87.8087 c -0.028,0.2801 -0.048,0.5375 -0.062,0.8159 l -0.014,0.2443 c -0.1766,4.6669 1.5572,9.4308 5.1274,13.0181 6.8247,6.8577 17.8896,6.8301 24.7474,0 0,0 14.786,-14.7666 24.6064,-24.5429 41.5443,50.9073 34.8381,118.7732 -9.401,163.34981 -47.8098,48.174 -125.7831,48.0213 -173.77571,0.028 -47.9921,-47.99241 -47.9836,-125.79461 0.013,-173.78571 15.01231,-13.8245 28.50201,-22.0587 46.02051,-28.9223 7.9656,-2.8073 12.1741,-11.534 9.3669,-19.5 l -10.0238,-28.4573 c -2.8069,-7.9649 -11.5416,-12.0516 -19.5075,-9.2442 -0.9928,0.3683 -1.998,0.699 -2.9988,1.0427 l 0.013,0.036 c -23.95551,8.9058 -46.42621,22.9708 -65.68281,42.2258 -71.635204,71.6353 -71.607604,187.77441 0.027,259.40941 71.63491,71.6349 187.73591,71.6175 259.37091,-0.018 23.8673,-23.8665 39.7681,-52.6562 47.7321,-83.10971 l 0.074,-0.02 c 14.6515,-56.6403 1.8602,-118.8672 -38.2889,-165.7234 8.2161,-8.1758 22.1418,-22.0212 22.1293,-22.0012 4.715,-4.6918 6.2014,-11.3945 4.467,-17.3466 z" id="path4164-6" style="fill:#000000;fill-opacity:1;stroke:none"/></g></svg>